<svg xmlns="http://www.w3.org/2000/svg" viewBox="0 0 978.94 43.37"><defs><style>.cls-1{fill:#fff;}.cls-2,.cls-3{fill:none;}.cls-3{stroke:#000;stroke-miterlimit:10;}</style></defs><g id="Layer_2" data-name="Layer 2"><g id="Layer_1-2" data-name="Layer 1"><path d="M2.37,15.49a2.12,2.12,0,0,0,.2,1,1.85,1.85,0,0,0,.54.63,2.39,2.39,0,0,0,.79.36,3.59,3.59,0,0,0,.93.12,4.41,4.41,0,0,0,.7-.06,2.16,2.16,0,0,0,.71-.21,1.41,1.41,0,0,0,.54-.43A1,1,0,0,0,7,16.16a1,1,0,0,0-.29-.73A2.24,2.24,0,0,0,6,15a9.36,9.36,0,0,0-1-.33c-.4-.09-.8-.19-1.21-.31a10,10,0,0,1-1.21-.38,4.31,4.31,0,0,1-1.06-.58,2.89,2.89,0,0,1-.76-.9,2.74,2.74,0,0,1-.29-1.3A3,3,0,0,1,.74,9.67a3.33,3.33,0,0,1,1-1.05A4.24,4.24,0,0,1,3,8a6,6,0,0,1,1.5-.2A7,7,0,0,1,6.21,8a4.21,4.21,0,0,1,1.43.63,3.31,3.31,0,0,1,1,1.11A3.47,3.47,0,0,1,9,11.38H6.63a2.1,2.1,0,0,0-.22-.83A1.22,1.22,0,0,0,5.94,10a1.87,1.87,0,0,0-.68-.27,4.25,4.25,0,0,0-.83-.08,2.88,2.88,0,0,0-.59.06A1.86,1.86,0,0,0,3.3,10a1.49,1.49,0,0,0-.4.39,1.1,1.1,0,0,0-.16.59,1,1,0,0,0,.13.53,1.13,1.13,0,0,0,.49.38,6.16,6.16,0,0,0,1,.34l1.69.44c.21,0,.5.12.87.22a4.26,4.26,0,0,1,1.1.53,3.31,3.31,0,0,1,.94,1,2.68,2.68,0,0,1,.4,1.53,3.38,3.38,0,0,1-.3,1.42,3.1,3.1,0,0,1-.88,1.13,4.22,4.22,0,0,1-1.45.74,6.69,6.69,0,0,1-2,.26A7.14,7.14,0,0,1,3,19.21a4.53,4.53,0,0,1-1.52-.71A3.51,3.51,0,0,1,.37,17.27,3.68,3.68,0,0,1,0,15.49Z"/><path d="M15.29,14a1.48,1.48,0,0,0-1.64-1.38,1.54,1.54,0,0,0-.88.24,1.94,1.94,0,0,0-.59.62,2.76,2.76,0,0,0-.32.84,4.76,4.76,0,0,0-.09.91,4.48,4.48,0,0,0,.09.89,2.68,2.68,0,0,0,.31.82,1.64,1.64,0,0,0,.57.6,1.51,1.51,0,0,0,.87.24,1.59,1.59,0,0,0,1.22-.45,2,2,0,0,0,.54-1.19H17.5a3.67,3.67,0,0,1-1.24,2.45,4.05,4.05,0,0,1-2.64.84A4.3,4.3,0,0,1,12,19.08a3.55,3.55,0,0,1-1.28-.85,3.72,3.72,0,0,1-.83-1.3,4.42,4.42,0,0,1-.29-1.66,5.47,5.47,0,0,1,.27-1.74,3.94,3.94,0,0,1,.8-1.38,3.6,3.6,0,0,1,1.29-.91,4.4,4.4,0,0,1,1.75-.33,4.84,4.84,0,0,1,1.38.19,3.58,3.58,0,0,1,1.18.56,3,3,0,0,1,.85,1A2.93,2.93,0,0,1,17.46,14Z"/><path d="M18,11.13h2.11v1.49h0a2.46,2.46,0,0,1,.42-.69,2.9,2.9,0,0,1,.61-.55,3.27,3.27,0,0,1,.73-.35,2.74,2.74,0,0,1,.81-.12,1.42,1.42,0,0,1,.48.08v2l-.37,0a3.1,3.1,0,0,0-.42,0,2.28,2.28,0,0,0-1,.2,1.76,1.76,0,0,0-.68.55,2.45,2.45,0,0,0-.37.82,4.61,4.61,0,0,0-.1,1v3.64H18Z"/><path d="M24.8,15.69a2.19,2.19,0,0,0,.55,1.56,2.23,2.23,0,0,0,2.58.15,1.37,1.37,0,0,0,.59-.71h1.95A3.67,3.67,0,0,1,29,18.76a4.2,4.2,0,0,1-2.34.63A4.45,4.45,0,0,1,25,19.08a3.65,3.65,0,0,1-1.3-.86,4.13,4.13,0,0,1-.82-1.34,5,5,0,0,1-.28-1.72,4.64,4.64,0,0,1,.29-1.68,4.05,4.05,0,0,1,.84-1.35A3.85,3.85,0,0,1,25,11.24a4.11,4.11,0,0,1,1.67-.33,3.75,3.75,0,0,1,1.79.4,3.61,3.61,0,0,1,1.26,1.06,4.47,4.47,0,0,1,.71,1.53,5.59,5.59,0,0,1,.15,1.79Zm3.6-1.4A2.57,2.57,0,0,0,27.85,13a1.57,1.57,0,0,0-1.21-.43,1.91,1.91,0,0,0-.88.18,1.47,1.47,0,0,0-.56.44,1.7,1.7,0,0,0-.3.56,2.32,2.32,0,0,0-.1.53Z"/><path d="M31.05,13.6a2.55,2.55,0,0,1,.39-1.29,2.76,2.76,0,0,1,.87-.83A4.12,4.12,0,0,1,33.5,11a6.76,6.76,0,0,1,1.34-.13,10.43,10.43,0,0,1,1.23.08,3.87,3.87,0,0,1,1.14.34,2.36,2.36,0,0,1,.84.69,1.94,1.94,0,0,1,.33,1.18v4.19a8.86,8.86,0,0,0,.06,1.05,1.81,1.81,0,0,0,.22.75H36.41c0-.13-.07-.26-.1-.39a2.6,2.6,0,0,1-.05-.39,3,3,0,0,1-1.25.76,5.23,5.23,0,0,1-1.47.22,4.07,4.07,0,0,1-1.07-.14,2.46,2.46,0,0,1-.87-.44,2.07,2.07,0,0,1-.59-.75A2.52,2.52,0,0,1,30.8,17,2.34,2.34,0,0,1,31,15.86a1.89,1.89,0,0,1,.63-.71,2.67,2.67,0,0,1,.87-.4,8.73,8.73,0,0,1,1-.21l1-.12a8.15,8.15,0,0,0,.86-.14A1.62,1.62,0,0,0,36,14a.58.58,0,0,0,.2-.52,1.28,1.28,0,0,0-.11-.57.92.92,0,0,0-.32-.33,1.26,1.26,0,0,0-.45-.15,3.16,3.16,0,0,0-.55,0,1.66,1.66,0,0,0-1,.28,1.25,1.25,0,0,0-.44.93Zm5.11,1.64a1.07,1.07,0,0,1-.35.2l-.45.11-.51.08-.53.08a4.37,4.37,0,0,0-.49.12,2.06,2.06,0,0,0-.42.21,1.07,1.07,0,0,0-.29.34,1.1,1.1,0,0,0-.11.51,1.06,1.06,0,0,0,.11.5.84.84,0,0,0,.3.32,1.35,1.35,0,0,0,.44.17,2.78,2.78,0,0,0,.51,0,1.89,1.89,0,0,0,1-.22,1.39,1.39,0,0,0,.53-.52,1.48,1.48,0,0,0,.21-.61,3.62,3.62,0,0,0,0-.5Z"/><path d="M39.37,11.13h2.09v1.09h0a3.06,3.06,0,0,1,1.06-1A2.83,2.83,0,0,1,44,10.91a3.36,3.36,0,0,1,1.39.29,2,2,0,0,1,1,1.05,3.49,3.49,0,0,1,1-.94,2.6,2.6,0,0,1,1.46-.4,4.51,4.51,0,0,1,1.19.15,2.46,2.46,0,0,1,.93.5,2.35,2.35,0,0,1,.61.9,3.74,3.74,0,0,1,.22,1.33v5.4H49.47V14.62c0-.27,0-.53,0-.77a1.72,1.72,0,0,0-.17-.62,1,1,0,0,0-.41-.42,1.53,1.53,0,0,0-.74-.16,1.43,1.43,0,0,0-.76.18,1.35,1.35,0,0,0-.45.47,1.9,1.9,0,0,0-.22.66,6,6,0,0,0,0,.74v4.49H44.42V14.66c0-.23,0-.47,0-.7a2.21,2.21,0,0,0-.13-.65,1,1,0,0,0-.39-.48,1.5,1.5,0,0,0-.81-.18,2.05,2.05,0,0,0-.41.07,1.44,1.44,0,0,0-.5.27,1.54,1.54,0,0,0-.41.56,2.17,2.17,0,0,0-.17,1v4.68H39.37Z"/><path d="M54.93,9.88H52.72V8.06h2.21Zm-2.21,1.25h2.21v8.06H52.72Z"/><path d="M55.9,11.13H58v1.12h0a2.48,2.48,0,0,1,1.09-1,3,3,0,0,1,1.37-.32,3.81,3.81,0,0,1,1.46.24,2.1,2.1,0,0,1,.89.67,2.6,2.6,0,0,1,.46,1,6.41,6.41,0,0,1,.14,1.37v5H61.24V14.63a2.83,2.83,0,0,0-.31-1.49,1.23,1.23,0,0,0-1.11-.49,1.54,1.54,0,0,0-1.31.54,3,3,0,0,0-.4,1.77v4.23H55.9Z"/><path d="M72.11,18.67A5.42,5.42,0,0,1,72,19.78a2.58,2.58,0,0,1-.57,1.16,3.36,3.36,0,0,1-1.26.91,5.44,5.44,0,0,1-2.21.37,5.05,5.05,0,0,1-1.21-.14,4.12,4.12,0,0,1-1.12-.46,2.71,2.71,0,0,1-.84-.81,2.33,2.33,0,0,1-.39-1.17h2.2a1.29,1.29,0,0,0,.61.86,2.19,2.19,0,0,0,1,.24,1.6,1.6,0,0,0,1.37-.56A2.22,2.22,0,0,0,70,18.76V17.7h0a2.23,2.23,0,0,1-1,.95,3.36,3.36,0,0,1-1.4.3A3.51,3.51,0,0,1,66,18.63a2.89,2.89,0,0,1-1.08-.87,3.68,3.68,0,0,1-.62-1.29,6.2,6.2,0,0,1-.19-1.57,4.81,4.81,0,0,1,.23-1.51A3.93,3.93,0,0,1,65,12.12a3.08,3.08,0,0,1,1.08-.88,3.53,3.53,0,0,1,2.89,0,2.4,2.4,0,0,1,1,1h0V11.13h2.11Zm-4-1.39a1.8,1.8,0,0,0,.82-.18,1.69,1.69,0,0,0,.59-.5,2.05,2.05,0,0,0,.35-.71,2.89,2.89,0,0,0,.12-.84,4.76,4.76,0,0,0-.09-.94,2.51,2.51,0,0,0-.31-.79,1.67,1.67,0,0,0-.58-.54,1.76,1.76,0,0,0-.9-.2,1.7,1.7,0,0,0-.81.18,1.82,1.82,0,0,0-.56.51,2.21,2.21,0,0,0-.33.73,4,4,0,0,0,0,1.73,2.28,2.28,0,0,0,.29.77,1.9,1.9,0,0,0,.56.57A1.61,1.61,0,0,0,68.12,17.28Z"/><path d="M124.7,18.81a5.42,5.42,0,0,1-.14,1.11,2.68,2.68,0,0,1-.57,1.16,3.36,3.36,0,0,1-1.26.91,5.44,5.44,0,0,1-2.21.37,5.05,5.05,0,0,1-1.21-.14,4.12,4.12,0,0,1-1.12-.46,2.71,2.71,0,0,1-.84-.81,2.33,2.33,0,0,1-.39-1.17h2.2a1.29,1.29,0,0,0,.61.86,2.19,2.19,0,0,0,1,.24,1.6,1.6,0,0,0,1.37-.56,2.22,2.22,0,0,0,.41-1.42V17.84h0a2.23,2.23,0,0,1-1,.95,3.36,3.36,0,0,1-1.4.3,3.51,3.51,0,0,1-1.55-.32,2.89,2.89,0,0,1-1.08-.87,3.68,3.68,0,0,1-.62-1.29A6.2,6.2,0,0,1,116.7,15a4.81,4.81,0,0,1,.23-1.51,3.93,3.93,0,0,1,.66-1.27,3.08,3.08,0,0,1,1.08-.88,3.24,3.24,0,0,1,1.49-.33,3.2,3.2,0,0,1,1.39.29,2.42,2.42,0,0,1,1,1h0V11.27h2.11Zm-4-1.39a1.8,1.8,0,0,0,.82-.18,1.69,1.69,0,0,0,.59-.5,2.05,2.05,0,0,0,.35-.71,2.89,2.89,0,0,0,.12-.84,4.76,4.76,0,0,0-.09-.94,2.51,2.51,0,0,0-.31-.79,1.67,1.67,0,0,0-.58-.54,1.76,1.76,0,0,0-.9-.2,1.7,1.7,0,0,0-.81.18,1.82,1.82,0,0,0-.56.51,2.21,2.21,0,0,0-.33.73,4,4,0,0,0,0,1.73,2.28,2.28,0,0,0,.29.77,1.79,1.79,0,0,0,.56.57A1.61,1.61,0,0,0,120.71,17.42Z"/><path d="M125.44,15.3a4.91,4.91,0,0,1,.3-1.75,3.69,3.69,0,0,1,2.15-2.2,4.67,4.67,0,0,1,1.72-.3,4.74,4.74,0,0,1,1.72.3,3.74,3.74,0,0,1,2.16,2.2,5.14,5.14,0,0,1,.29,1.75,5.06,5.06,0,0,1-.29,1.75,3.75,3.75,0,0,1-.85,1.33,3.67,3.67,0,0,1-1.31.85,4.74,4.74,0,0,1-1.72.3,4.67,4.67,0,0,1-1.72-.3,3.76,3.76,0,0,1-1.31-.85,3.87,3.87,0,0,1-.84-1.33A4.83,4.83,0,0,1,125.44,15.3Zm2.22,0a4.94,4.94,0,0,0,.09.95,2.46,2.46,0,0,0,.32.82,1.7,1.7,0,0,0,.6.59,1.89,1.89,0,0,0,.94.22,2,2,0,0,0,.94-.22,1.72,1.72,0,0,0,.61-.59,2.7,2.7,0,0,0,.32-.82,4.94,4.94,0,0,0,.09-.95,5,5,0,0,0-.09-1,2.6,2.6,0,0,0-.32-.82,1.81,1.81,0,0,0-.61-.59,1.84,1.84,0,0,0-.94-.22,1.67,1.67,0,0,0-1.54.81,2.38,2.38,0,0,0-.32.82A5,5,0,0,0,127.66,15.3Z"/><path d="M134.34,13.75a2.66,2.66,0,0,1,.39-1.3,2.56,2.56,0,0,1,.88-.82,3.77,3.77,0,0,1,1.19-.45,6.59,6.59,0,0,1,1.33-.13,10.16,10.16,0,0,1,1.23.08,3.7,3.7,0,0,1,1.14.34,2.36,2.36,0,0,1,.84.69,1.94,1.94,0,0,1,.33,1.18v4.19a8.86,8.86,0,0,0,.06,1,2,2,0,0,0,.22.75h-2.24a2.85,2.85,0,0,1-.11-.39c0-.13,0-.26,0-.39a2.93,2.93,0,0,1-1.25.76,4.78,4.78,0,0,1-1.46.22,4.09,4.09,0,0,1-1.08-.14,2.55,2.55,0,0,1-.87-.44,2.19,2.19,0,0,1-.59-.75,2.52,2.52,0,0,1-.21-1.07,2.33,2.33,0,0,1,.25-1.13,1.87,1.87,0,0,1,.62-.71,2.77,2.77,0,0,1,.87-.4,8.73,8.73,0,0,1,1-.21l1-.12a7.74,7.74,0,0,0,.86-.14,1.54,1.54,0,0,0,.59-.28.59.59,0,0,0,.21-.52,1.15,1.15,0,0,0-.12-.57.9.9,0,0,0-.31-.33,1.26,1.26,0,0,0-.45-.15,3.36,3.36,0,0,0-.56,0,1.68,1.68,0,0,0-1,.28,1.25,1.25,0,0,0-.43.94Zm5.12,1.63a1.19,1.19,0,0,1-.35.2l-.46.11-.5.08-.53.08a3.89,3.89,0,0,0-.49.12,1.83,1.83,0,0,0-.42.21,1,1,0,0,0-.29.34,1,1,0,0,0-.11.51,1,1,0,0,0,.11.5.82.82,0,0,0,.29.32,1.44,1.44,0,0,0,.44.17,2.92,2.92,0,0,0,.51,0,1.93,1.93,0,0,0,1-.22,1.47,1.47,0,0,0,.53-.52,1.85,1.85,0,0,0,.21-.61c0-.21,0-.38,0-.5Z"/><path d="M145.41,11.27H147v1.48h-1.62v4a1.08,1.08,0,0,0,.19.75,1.1,1.1,0,0,0,.75.18h.35l.33-.05v1.72a5.44,5.44,0,0,1-.62.06h-.67a6.19,6.19,0,0,1-1-.07,2.15,2.15,0,0,1-.81-.27,1.4,1.4,0,0,1-.55-.58,2,2,0,0,1-.2-1V12.75h-1.34V11.27h1.34V8.85h2.21Z"/><circle class="cls-1" cx="94.4" cy="16.27" r="16.27"/><path class="cls-2" d="M86.56,20.19a6.56,6.56,0,0,1-3.22.84l-.42,0a12.44,12.44,0,0,0,5.26,6,13.9,13.9,0,0,1-1.62-6.83Z"/><path class="cls-2" d="M93.38,13a1,1,0,0,0,1.39-.13.55.55,0,0,0,.06-.22l-1.57-.76c-.06,0-.21.18-.22.28A.68.68,0,0,0,93.38,13Zm.07-.75,1,.45-.11.25-1-.46Z"/><path class="cls-2" d="M98.07,25.24a4.08,4.08,0,0,1-1.4.28h-.42a30.14,30.14,0,0,0,3,2.18l0,0A14.1,14.1,0,0,0,100.7,27a8.82,8.82,0,0,1-2-1.2C98.46,25.59,98.26,25.41,98.07,25.24Z"/><path class="cls-2" d="M83.38,5.49a13.11,13.11,0,0,1,1.25.62L84.77,6C84.3,5.79,83.84,5.63,83.38,5.49Z"/><path class="cls-2" d="M96.88,8.38a9,9,0,0,1,3.66,0,8.33,8.33,0,0,1,3.84,2l1.07,1-1.36.47a9.62,9.62,0,0,1-2.07.46l4,2.21-.2.65c-.1.31-.24.76-.42,1.3-.74,2.22-1.08,3-2,3.28a2,2,0,0,1-1.54-.22l-.22-.09c-.36-.14-.65-.27-.9-.38a5.76,5.76,0,0,0-.79-.32h-.23c0,.71.08,1.52.12,2.24a2.07,2.07,0,0,0,.78.16c.2,0,.59-.1.79-.1a1.42,1.42,0,0,1,1.14.55,2.16,2.16,0,0,1-.63,2.5,5.21,5.21,0,0,1-1.5.88,10.52,10.52,0,0,0,1.91.87A12.41,12.41,0,0,0,95.44,3.9,21.25,21.25,0,0,0,96,6.25,18.53,18.53,0,0,0,96.88,8.38Z"/><path class="cls-2" d="M83.56,15.91A10,10,0,0,1,84,14.75a11.23,11.23,0,0,1,3.33-4l.43-.39c-.38-.45-.77-.9-1.19-1.31s-.87-.8-1.33-1.17A12.4,12.4,0,0,0,82,16.27a11.7,11.7,0,0,0,.19,2.15,8.28,8.28,0,0,0,.67-.89A6.52,6.52,0,0,0,83.56,15.91Z"/><path class="cls-2" d="M91.27,8.06a4.74,4.74,0,0,1,.94-.17,5.94,5.94,0,0,1,1,0A5.4,5.4,0,0,1,93,6.79a5.48,5.48,0,0,1,.64-2.92A12.34,12.34,0,0,0,87.43,6a29.65,29.65,0,0,1,3,1.52Q90.85,7.78,91.27,8.06Z"/><path class="cls-2" d="M90.06,19.37a2.22,2.22,0,0,1,.19-.41l.42-.82.79.5,3.82,2.46c1.25.8,2.49,1.61,3.74,2.4a2.8,2.8,0,0,0,1.79-.69h-.16a4,4,0,0,1-2.1-.61,3.36,3.36,0,0,1-1.5-2.06,2.42,2.42,0,0,1,.33-1.91A2.85,2.85,0,0,1,100,17a3.81,3.81,0,0,1,1.45.46l.87.37a2.79,2.79,0,0,0,.37.14l.24.08a6,6,0,0,0,.46-1l-.22-.05a.58.58,0,0,0-.14.07l-.3.25-.27-.28a.57.57,0,0,0-.27-.16.65.65,0,0,0-.53.07l-.42-.73a1.51,1.51,0,0,1,1.19-.15,1.37,1.37,0,0,1,.37.17,1,1,0,0,1,.58-.09,1.4,1.4,0,0,1,.29.09c0-.1.07-.21.11-.32l.2-.61-9-5,0,0a4.73,4.73,0,0,0-1.69-.68l-1.11.57A27.13,27.13,0,0,0,89,8.08c-.93-.54-1.77-1-2.56-1.37l-.41.35a17.66,17.66,0,0,1,2.68,2.49l.1.11a15.78,15.78,0,0,1,1.53,2.1l-1,1c-.19-.34-.42-.69-.66-1l-.3.27a10,10,0,0,0-2.92,3.4c-.15.36-.25.67-.36,1a7.63,7.63,0,0,1-.9,2,8.11,8.11,0,0,1-.65.89A4.87,4.87,0,0,0,85,19.07c2.89-1,3.6-4.38,3.63-4.52l1.65.33a9.22,9.22,0,0,1-1.86,3.78A12.39,12.39,0,0,0,88.51,23,12.64,12.64,0,0,0,91,28.21a12.29,12.29,0,0,0,3.45.49,12.61,12.61,0,0,0,2.84-.33,30.54,30.54,0,0,1-3.82-3.12C91.59,23.49,89.31,21.3,90.06,19.37ZM92.36,12A2.66,2.66,0,0,1,93,10.82l5,2.47.06,0a3.28,3.28,0,0,1,1,1.2,2.62,2.62,0,0,1,.34,1.4l-.84.19a2.46,2.46,0,0,0-.26-1.21,2.62,2.62,0,0,0-.74-.88l-2.08-1a1.72,1.72,0,0,1-.89.79A1.93,1.93,0,0,1,93,13.66,1.4,1.4,0,0,1,92.36,12Z"/><path d="M95.18,2.18l.16,1.12c0,.2.07.4.1.6a12.41,12.41,0,0,1,6.91,21.92l.25.09h0l-.56,1.59c-.33-.11-.81-.28-1.35-.52a14.1,14.1,0,0,1-1.45.74l-.88,1.4c-.39-.24-.76-.5-1.13-.75a12.61,12.61,0,0,1-2.84.33A12.29,12.29,0,0,1,91,28.21l.2.25-1.29,1.09A14.62,14.62,0,0,1,88.18,27a12.44,12.44,0,0,1-5.26-6,7.29,7.29,0,0,1-1.39-.21L81,20.66A14.11,14.11,0,1,0,95.18,2.18Z"/><path d="M82.17,18.42A11.7,11.7,0,0,1,82,16.27a12.4,12.4,0,0,1,3.24-8.36,15,15,0,0,0-1.38-1,14,14,0,0,0-3.55,9.34,14.49,14.49,0,0,0,.42,3.45l.51-.4A8.13,8.13,0,0,0,82.17,18.42Z"/><path d="M93.67,3.87A6.16,6.16,0,0,1,94.22,3l.65-.83H94.4a14,14,0,0,0-8.79,3.09c.61.23,1.22.48,1.82.75A12.34,12.34,0,0,1,93.67,3.87Z"/><path d="M84.63,6.11a13.11,13.11,0,0,0-1.25-.62c.46.14.92.3,1.39.48q.41-.37.84-.72a32.21,32.21,0,0,0-5.8-1.57l-.29,1.23a17.75,17.75,0,0,1,4.32,2A10.2,10.2,0,0,1,84.63,6.11Z"/><path d="M88.38,18.66a9.22,9.22,0,0,0,1.86-3.78l-1.65-.33c0,.14-.74,3.51-3.63,4.52a4.87,4.87,0,0,1-1.35.26,8.11,8.11,0,0,0,.65-.89,7.63,7.63,0,0,0,.9-2c.11-.32.21-.63.36-1A10,10,0,0,1,88.44,12l.3-.27c.24.35.47.7.66,1l1-1a15.78,15.78,0,0,0-1.53-2.1l-.1-.11a17.66,17.66,0,0,0-2.68-2.49c-.3.27-.58.56-.85.85.46.37.91.76,1.33,1.17s.81.86,1.19,1.31l-.43.39a11.23,11.23,0,0,0-3.33,4,10,10,0,0,0-.42,1.16,6.52,6.52,0,0,1-.72,1.62,8.28,8.28,0,0,1-.67.89A11.87,11.87,0,0,0,82.92,21l.42,0a6.56,6.56,0,0,0,3.22-.84A13.9,13.9,0,0,0,88.18,27,11.76,11.76,0,0,0,91,28.21,12.64,12.64,0,0,1,88.51,23,12.39,12.39,0,0,1,88.38,18.66Z"/><path d="M95.13,1.85l-.26.32h.31Z"/><path d="M93.67,3.87A5.48,5.48,0,0,0,93,6.79a5.4,5.4,0,0,0,.21,1.13,5.94,5.94,0,0,0-1,0,4.74,4.74,0,0,0-.94.17q-.42-.29-.87-.54a29.65,29.65,0,0,0-3-1.52,11.17,11.17,0,0,0-1,.71c.79.38,1.63.83,2.56,1.37a27.13,27.13,0,0,1,3.14,2.12l1.11-.57a4.73,4.73,0,0,1,1.69.68l0,0,9,5-.2.61c0,.11-.07.22-.11.32a1.4,1.4,0,0,0-.29-.09,1,1,0,0,0-.58.09,1.37,1.37,0,0,0-.37-.17,1.51,1.51,0,0,0-1.19.15l.42.73a.65.65,0,0,1,.53-.07.57.57,0,0,1,.27.16l.27.28.3-.25a.58.58,0,0,1,.14-.07l.22.05a6,6,0,0,1-.46,1l-.24-.08a2.79,2.79,0,0,1-.37-.14l-.87-.37A3.81,3.81,0,0,0,100,17a2.85,2.85,0,0,0-2.61,1.19,2.42,2.42,0,0,0-.33,1.91,3.36,3.36,0,0,0,1.5,2.06,4,4,0,0,0,2.1.61h.16A2.8,2.8,0,0,1,99,23.5c-1.25-.79-2.49-1.6-3.74-2.4l-3.82-2.46-.79-.5-.42.82a2.22,2.22,0,0,0-.19.41c-.75,1.93,1.53,4.12,3.36,5.88a30.54,30.54,0,0,0,3.82,3.12,12.1,12.1,0,0,0,2-.65l0,0a30.14,30.14,0,0,1-3-2.18h.42a4.08,4.08,0,0,0,1.4-.28c.19.17.39.35.62.54a8.82,8.82,0,0,0,2,1.2,12.56,12.56,0,0,0,1.65-1.16,10.52,10.52,0,0,1-1.91-.87,5.21,5.21,0,0,0,1.5-.88,2.16,2.16,0,0,0,.63-2.5,1.42,1.42,0,0,0-1.14-.55c-.2,0-.59.08-.79.1a2.07,2.07,0,0,1-.78-.16c0-.72-.08-1.53-.12-2.24H100a5.76,5.76,0,0,1,.79.32c.25.11.54.24.9.38l.22.09a2,2,0,0,0,1.54.22c.87-.26,1.21-1.06,2-3.28.18-.54.32-1,.42-1.3l.2-.65-4-2.21a9.62,9.62,0,0,0,2.07-.46l1.36-.47-1.07-1a8.33,8.33,0,0,0-3.84-2,9,9,0,0,0-3.66,0A18.53,18.53,0,0,1,96,6.25a21.25,21.25,0,0,1-.59-2.35c-.34,0-.69,0-1,0Z"/><path d="M79.88,20.38l1.11.28c-.1-.31-.2-.62-.28-.94Z"/><path d="M98.37,29.12l.88-1.4a12.1,12.1,0,0,1-2,.65C97.61,28.62,98,28.88,98.37,29.12Z"/><path d="M102.05,27.5l.56-1.59h0l-.25-.09A12.56,12.56,0,0,1,100.7,27C101.24,27.22,101.72,27.39,102.05,27.5Z"/><path d="M89.86,29.55l1.29-1.09-.2-.25A11.76,11.76,0,0,1,88.18,27,14.62,14.62,0,0,0,89.86,29.55Z"/><path d="M86.48,6.71a11.17,11.17,0,0,1,1-.71c-.6-.27-1.21-.52-1.82-.75q-.44.35-.84.72C85.32,6.18,85.89,6.43,86.48,6.71Z"/><path d="M82.92,21a11.87,11.87,0,0,1-.75-2.59,8.13,8.13,0,0,1-1,.9l-.51.4c.08.32.18.63.28.94l.54.14A7.29,7.29,0,0,0,82.92,21Z"/><path d="M86.07,7.06a14.2,14.2,0,0,0-1.44-.95,10.2,10.2,0,0,0-.79.82,15,15,0,0,1,1.38,1C85.49,7.62,85.77,7.33,86.07,7.06Z"/><path d="M93.67,3.87l.73,0c.35,0,.7,0,1,0,0-.2-.07-.4-.1-.6l-.16-1.12h-.31L94.22,3A6.16,6.16,0,0,0,93.67,3.87Z"/><path d="M93,13.66a1.93,1.93,0,0,0,1.68.13,1.72,1.72,0,0,0,.89-.79l2.08,1a2.62,2.62,0,0,1,.74.88,2.46,2.46,0,0,1,.26,1.21l.84-.19a2.62,2.62,0,0,0-.34-1.4,3.28,3.28,0,0,0-1-1.2l-.06,0-5-2.47A2.66,2.66,0,0,0,92.36,12,1.4,1.4,0,0,0,93,13.66Zm0-1.49c0-.1.16-.23.22-.28l1.57.76a.55.55,0,0,1-.06.22,1,1,0,0,1-1.39.13A.68.68,0,0,1,93,12.17Z"/><rect x="93.73" y="12.07" width="0.27" height="1.06" transform="translate(42.25 92.01) rotate(-64.62)"/><line class="cls-3" y1="42.87" x2="978.94" y2="42.87"/></g></g></svg>