<svg xmlns="http://www.w3.org/2000/svg" viewBox="0 0 125.49 131.27"><g id="Layer_2" data-name="Layer 2"><g id="Layer_1-2" data-name="Layer 1"><path d="M109.75,74.35a29.44,29.44,0,0,1-3.41-7.72,54.63,54.63,0,0,0-2-5.48C100.92,53.39,96,49,88.54,42.32c-.69-.63-1.36-1.22-2-1.81a77.39,77.39,0,0,1,5.61-6.21,82.41,82.41,0,0,1,33.36-19.77l-1.4-5.82A148.48,148.48,0,0,0,73.89,26.9c-1.39.81-2.76,1.66-4.13,2.53a22.88,22.88,0,0,0-4.43-.77,24.18,24.18,0,0,0-4.88.13,25.36,25.36,0,0,0,1-5.38A26.72,26.72,0,0,0,55.81,5.49L51.5,0l-1,6.9a86.47,86.47,0,0,1-3.28,14,84.63,84.63,0,0,1-4,10.13,43,43,0,0,0-17.32.07A39.54,39.54,0,0,0,7.65,40.54L2.56,45.09,9,47.3a45.06,45.06,0,0,0,9.82,2.2L0,60l1,3.11c.46,1.45,1.13,3.58,2,6.13,3.51,10.53,5.11,14.33,9.23,15.57a9.4,9.4,0,0,0,7.3-1.06c.34-.12.69-.26,1.06-.41,1.68-.7,3.08-1.31,4.26-1.84A29.06,29.06,0,0,1,28.55,80c.35,0,.71,0,1.07,0-.19,3.36-.35,7.18-.53,10.63a9.53,9.53,0,0,1-3.74.72c-.93-.08-2.79-.46-3.73-.45-2.66,0-3.65.9-5.38,2.59-2.33,5.8.87,10,3,11.85a23.39,23.39,0,0,0,7.12,4.16,55.52,55.52,0,0,1-10.28,4.58h0l2.68,7.54c3.38-1.18,10.41-3.65,15.91-8.2,1.07-.89,2.05-1.73,2.93-2.51a19.48,19.48,0,0,0,6.64,1.29h.75c.37,0,.79,0,1.25,0a141.49,141.49,0,0,1-14.31,10.32l4.27,6.77a146.59,146.59,0,0,0,23.46-18.33c8.66-8.34,19.45-18.73,15.92-27.85a15.36,15.36,0,0,0-.91-2l-2-3.92L68.9,79.57q-9,5.79-18.13,11.67Q41.91,97,33.07,102.63c-1.9.38-6.23-1.25-8.5-3.28l-.05,0h0l.82,0a19.17,19.17,0,0,0,9.94-2.91,15.88,15.88,0,0,0,7.12-9.74,11.72,11.72,0,0,0-1.58-9.09c-2.47-3.81-6.68-5.69-12.39-5.63-2,0-3.82.85-6.87,2.2-1.14.5-2.48,1.1-4.09,1.76-.59.25-1.18.44-1.76.63-.41.13-.79.26-1.17.4A30.44,30.44,0,0,1,12.41,72l1-.25a1.86,1.86,0,0,1,.66.34l1.42,1.19L16.79,72a3.1,3.1,0,0,1,1.29-.79,3.38,3.38,0,0,1,2.53.35l2-3.47a7.36,7.36,0,0,0-5.67-.71,6.63,6.63,0,0,0-1.73.8,5.14,5.14,0,0,0-2.77-.39,5.09,5.09,0,0,0-1.38.4c-.16-.49-.33-1-.5-1.49-.35-1-.67-2-1-2.89L52,40.24l.19-.11a22.88,22.88,0,0,1,8-3.24l5.27,2.71A130.13,130.13,0,0,1,80.37,29.53c10.4-6,18.64-9.81,26.79-12.24C99.93,20.33,91,26,81.72,36.5l-.46.53A72.41,72.41,0,0,0,74,47l4.63,4.9c.92-1.58,2-3.23,3.11-4.92l1.46,1.31c7.15,6.39,11.08,9.92,13.8,16.1a42.43,42.43,0,0,1,1.71,4.7A36.77,36.77,0,0,0,103,78.63a40.74,40.74,0,0,0,3.08,4.23,23,23,0,0,1-6.41-1.24C86,76.85,82.63,60.88,82.5,60.2l-7.85,1.57a44.09,44.09,0,0,0,8.83,17.92,58.73,58.73,0,0,1-.62,20.74,59.77,59.77,0,0,1-12.53,25.72l6.15,5.12a67.78,67.78,0,0,0,14.21-29.18,67.22,67.22,0,0,0,1.42-15.16A28.88,28.88,0,0,0,97,89.18a31.44,31.44,0,0,0,10.31,1.72,34.81,34.81,0,0,0,8.57-1.09l7.82-2-6.32-5A34.07,34.07,0,0,1,109.75,74.35Z"/><path d="M39.51,57.75l7.38-3.6a10.27,10.27,0,0,0,3.73,4c2,1.25,8.06.74,11.17-.59,4.25-1.81,7.61-5.93,6-9.38a9.49,9.49,0,0,0-6.37-5.09l-.69-.16L37.6,54.23l-.28.17a15.73,15.73,0,0,0-4.91,5.72,12.13,12.13,0,0,0-1.64,6.61l4,.91a11.6,11.6,0,0,1,4.74-9.89ZM60.34,47.58c.31.26,1,.87,1,1.35s.87,2.19-1.58,3.92c-2.78,2-5.7.87-6.62-.62a2.56,2.56,0,0,1-.26-1Z"/><rect x="54.97" y="50.31" width="5.02" height="1.29" transform="translate(-16.29 29.53) rotate(-25.36)"/></g></g></svg>