<svg xmlns="http://www.w3.org/2000/svg" viewBox="0 0 509.4 112.77"><defs><style>.cls-1{fill:#fff;}.cls-2{fill:none;}</style></defs><g id="Layer_2" data-name="Layer 2"><g id="Layer_1-2" data-name="Layer 1"><path d="M8.21,53.67A7,7,0,0,0,8.91,57a6.14,6.14,0,0,0,1.87,2.19,8,8,0,0,0,2.72,1.24,13,13,0,0,0,3.24.41,17.71,17.71,0,0,0,2.43-.19,8.47,8.47,0,0,0,2.43-.73,5.25,5.25,0,0,0,1.89-1.49,3.69,3.69,0,0,0,.76-2.4,3.38,3.38,0,0,0-1-2.54,7.9,7.9,0,0,0-2.62-1.62A25.78,25.78,0,0,0,17,50.7c-1.37-.33-2.76-.69-4.16-1.08A37.41,37.41,0,0,1,8.59,48.3a14.62,14.62,0,0,1-3.67-2A9.06,9.06,0,0,1,1.3,38.66,10.07,10.07,0,0,1,2.57,33.5a11.48,11.48,0,0,1,3.32-3.65,14.54,14.54,0,0,1,4.64-2.16,20.14,20.14,0,0,1,5.19-.7,24.5,24.5,0,0,1,5.8.68,14.57,14.57,0,0,1,4.94,2.18,11.07,11.07,0,0,1,3.43,3.86,11.82,11.82,0,0,1,1.27,5.7H23a6.71,6.71,0,0,0-.73-2.86,4.7,4.7,0,0,0-1.64-1.78,7.08,7.08,0,0,0-2.35-.92,14.49,14.49,0,0,0-2.89-.27,9.46,9.46,0,0,0-2.05.22,5.4,5.4,0,0,0-1.87.75,4.76,4.76,0,0,0-1.37,1.35A3.64,3.64,0,0,0,9.51,38a3.46,3.46,0,0,0,.43,1.84,3.86,3.86,0,0,0,1.7,1.3,22.11,22.11,0,0,0,3.51,1.18c1.49.4,3.45.9,5.86,1.52q1.08.21,3,.78a14.45,14.45,0,0,1,3.8,1.81,11.51,11.51,0,0,1,3.27,3.32A9.45,9.45,0,0,1,32.46,55a11.68,11.68,0,0,1-1,4.91,10.6,10.6,0,0,1-3.05,3.92,14.57,14.57,0,0,1-5,2.56,23.48,23.48,0,0,1-6.94.92,24.34,24.34,0,0,1-6.18-.78,15.47,15.47,0,0,1-5.3-2.46A12.12,12.12,0,0,1,1.3,59.83,12.84,12.84,0,0,1,0,53.67Z"/><path d="M53,48.38q-.76-4.82-5.67-4.81a5.37,5.37,0,0,0-3.08.84,6.77,6.77,0,0,0-2,2.16,9.19,9.19,0,0,0-1.1,2.91,15.64,15.64,0,0,0-.33,3.16,14.88,14.88,0,0,0,.33,3.08,9.26,9.26,0,0,0,1,2.84,6.12,6.12,0,0,0,2,2.08,5.44,5.44,0,0,0,3,.81,5.63,5.63,0,0,0,4.23-1.54,7.31,7.31,0,0,0,1.87-4.14h7.4a12.69,12.69,0,0,1-4.32,8.48,13.93,13.93,0,0,1-9.13,2.92,15.28,15.28,0,0,1-5.75-1,12.92,12.92,0,0,1-4.46-3,13.52,13.52,0,0,1-2.86-4.51,15.68,15.68,0,0,1-1-5.75,18.62,18.62,0,0,1,.94-6,13.61,13.61,0,0,1,2.78-4.8,12.74,12.74,0,0,1,4.48-3.16,15.18,15.18,0,0,1,6-1.14,17.57,17.57,0,0,1,4.78.65,12.67,12.67,0,0,1,4.1,2,10.17,10.17,0,0,1,4.24,8Z"/><path d="M62.27,38.55h7.29v5.18h.1a9.58,9.58,0,0,1,1.46-2.4,9.47,9.47,0,0,1,2.11-1.89,10.43,10.43,0,0,1,2.54-1.22,9.36,9.36,0,0,1,2.8-.43,6,6,0,0,1,1.68.27v7.13c-.36-.07-.79-.13-1.3-.19s-1-.08-1.46-.08a8.13,8.13,0,0,0-3.56.7,6.26,6.26,0,0,0-2.35,1.92,7.7,7.7,0,0,0-1.27,2.83,15.57,15.57,0,0,0-.38,3.52V66.47H62.27Z"/><path d="M85.92,54.37c.11,2.49.74,4.28,1.89,5.4a6.84,6.84,0,0,0,5,1.68,6.76,6.76,0,0,0,4-1.17,4.85,4.85,0,0,0,2.06-2.45h6.75q-1.62,5-5,7.18a14.61,14.61,0,0,1-8.1,2.16,16,16,0,0,1-5.94-1,12.44,12.44,0,0,1-4.49-3,13.72,13.72,0,0,1-2.83-4.64,17,17,0,0,1-1-5.95,16.17,16.17,0,0,1,1-5.83,13.43,13.43,0,0,1,7.42-7.77,14.41,14.41,0,0,1,5.81-1.14,13.29,13.29,0,0,1,6.21,1.38,12.37,12.37,0,0,1,4.34,3.7,15,15,0,0,1,2.46,5.29,19.36,19.36,0,0,1,.54,6.21Zm12.47-4.86a9,9,0,0,0-1.91-4.43,5.39,5.39,0,0,0-4.19-1.51,6.73,6.73,0,0,0-3.05.62,5.83,5.83,0,0,0-1.94,1.54,5.62,5.62,0,0,0-1,1.94,9,9,0,0,0-.35,1.84Z"/><path d="M107.57,47.13a9,9,0,0,1,1.35-4.48,9.2,9.2,0,0,1,3-2.86,13.23,13.23,0,0,1,4.13-1.54,23.2,23.2,0,0,1,4.62-.46,30.94,30.94,0,0,1,4.26.3,12.91,12.91,0,0,1,3.94,1.16,7.88,7.88,0,0,1,2.92,2.4A6.71,6.71,0,0,1,133,45.73V60.26a30.09,30.09,0,0,0,.22,3.62,6.49,6.49,0,0,0,.76,2.59h-7.78a11.81,11.81,0,0,1-.35-1.33,12.21,12.21,0,0,1-.19-1.37,9.9,9.9,0,0,1-4.32,2.64,17.18,17.18,0,0,1-5.08.76,13.44,13.44,0,0,1-3.72-.49,8.46,8.46,0,0,1-3-1.51,7,7,0,0,1-2-2.59,8.74,8.74,0,0,1-.73-3.73,8.09,8.09,0,0,1,.84-3.91,6.8,6.8,0,0,1,2.16-2.46,9.82,9.82,0,0,1,3-1.38,33.75,33.75,0,0,1,3.43-.73c1.15-.18,2.29-.32,3.4-.43a21.47,21.47,0,0,0,3-.48,5.08,5.08,0,0,0,2-1,2.08,2.08,0,0,0,.71-1.81,4.07,4.07,0,0,0-.41-2,3,3,0,0,0-1.08-1.13,4.23,4.23,0,0,0-1.57-.54,12.69,12.69,0,0,0-1.91-.14,5.91,5.91,0,0,0-3.57,1,4.38,4.38,0,0,0-1.51,3.24Zm17.72,5.67a3.43,3.43,0,0,1-1.22.68,13.29,13.29,0,0,1-1.57.41c-.55.1-1.14.19-1.75.26l-1.84.27a14.64,14.64,0,0,0-1.7.44,5,5,0,0,0-1.46.73,3.38,3.38,0,0,0-1,1.16,3.64,3.64,0,0,0-.38,1.78,3.54,3.54,0,0,0,.38,1.73,2.85,2.85,0,0,0,1,1.1,4.39,4.39,0,0,0,1.51.57,9.54,9.54,0,0,0,1.79.16,6.83,6.83,0,0,0,3.51-.75,5.12,5.12,0,0,0,1.83-1.81,5.68,5.68,0,0,0,.73-2.14,14.76,14.76,0,0,0,.14-1.72Z"/><path d="M136.41,38.55h7.24v3.78h.1A11,11,0,0,1,147.4,39a9.89,9.89,0,0,1,4.89-1.19,11.16,11.16,0,0,1,4.83,1,6.74,6.74,0,0,1,3.32,3.62,11.67,11.67,0,0,1,3.38-3.24,8.93,8.93,0,0,1,5.05-1.41,14.89,14.89,0,0,1,4.1.54,8.29,8.29,0,0,1,3.24,1.73,8,8,0,0,1,2.11,3.11,12.61,12.61,0,0,1,.75,4.61V66.47H171.4V50.64c0-.93,0-1.81-.1-2.64a5.63,5.63,0,0,0-.6-2.16,3.59,3.59,0,0,0-1.43-1.46,5.15,5.15,0,0,0-2.56-.54,4.93,4.93,0,0,0-2.62.62,4.59,4.59,0,0,0-1.57,1.62,6.54,6.54,0,0,0-.76,2.27,18.26,18.26,0,0,0-.18,2.56V66.47h-7.67V50.81q0-1.25-.06-2.46a6.72,6.72,0,0,0-.46-2.24A3.45,3.45,0,0,0,152,44.46a5.11,5.11,0,0,0-2.78-.62,5.85,5.85,0,0,0-1.43.24,4.94,4.94,0,0,0-1.73.92,5.49,5.49,0,0,0-1.43,2,8,8,0,0,0-.59,3.32v16.2h-7.67Z"/><path d="M190.3,34.23h-7.66V27.91h7.66Zm-7.66,4.32h7.66V66.47h-7.66Z"/><path d="M193.65,38.55h7.29v3.89h.16a8.91,8.91,0,0,1,3.78-3.54,11,11,0,0,1,4.76-1.11,13,13,0,0,1,5.05.84,7.53,7.53,0,0,1,3.1,2.32,8.87,8.87,0,0,1,1.59,3.62,22.23,22.23,0,0,1,.46,4.72V66.47h-7.67V50.7a9.8,9.8,0,0,0-1.08-5.16c-.72-1.13-2-1.7-3.83-1.7a5.33,5.33,0,0,0-4.54,1.86q-1.4,1.88-1.4,6.13V66.47h-7.67Z"/><path d="M249.81,64.69a18.44,18.44,0,0,1-.46,3.83,9.34,9.34,0,0,1-2,4A11.63,11.63,0,0,1,243,75.7a18.75,18.75,0,0,1-7.67,1.3,17.4,17.4,0,0,1-4.18-.52,13.16,13.16,0,0,1-3.89-1.59,9.68,9.68,0,0,1-2.92-2.78A8.1,8.1,0,0,1,223,68h7.61a4.4,4.4,0,0,0,2.11,3,7.53,7.53,0,0,0,3.62.84,5.55,5.55,0,0,0,4.72-2A7.58,7.58,0,0,0,242.52,65V61.34h-.1a7.61,7.61,0,0,1-3.54,3.26,11.34,11.34,0,0,1-4.83,1.06,12.23,12.23,0,0,1-5.41-1.11,10.32,10.32,0,0,1-3.72-3A12.7,12.7,0,0,1,222.79,57a21.24,21.24,0,0,1-.68-5.42,17.44,17.44,0,0,1,.78-5.21,13.72,13.72,0,0,1,2.3-4.43,11,11,0,0,1,3.75-3,11.26,11.26,0,0,1,5.16-1.14,10.67,10.67,0,0,1,4.83,1,8.31,8.31,0,0,1,3.49,3.45h.1V38.55h7.29ZM236,59.88a6.12,6.12,0,0,0,2.86-.65,6,6,0,0,0,2.05-1.73,7.71,7.71,0,0,0,1.22-2.45,10.24,10.24,0,0,0,.4-2.89,15.57,15.57,0,0,0-.32-3.27,8.3,8.3,0,0,0-1.08-2.73,5.58,5.58,0,0,0-2-1.89,6.28,6.28,0,0,0-3.13-.7,5.63,5.63,0,0,0-2.78.65,5.94,5.94,0,0,0-2,1.75,7.42,7.42,0,0,0-1.13,2.54,12.77,12.77,0,0,0-.35,3,15.11,15.11,0,0,0,.3,3,8,8,0,0,0,1,2.67A6,6,0,0,0,233,59.12,5.37,5.37,0,0,0,236,59.88Z"/><path d="M432,65.17a18.45,18.45,0,0,1-.46,3.84,9.34,9.34,0,0,1-2,4,11.82,11.82,0,0,1-4.37,3.16,19,19,0,0,1-7.67,1.29,17.89,17.89,0,0,1-4.18-.51,13.16,13.16,0,0,1-3.89-1.59,9.68,9.68,0,0,1-2.92-2.78,8.16,8.16,0,0,1-1.32-4.08h7.61a4.37,4.37,0,0,0,2.11,3,7.64,7.64,0,0,0,3.62.83,5.54,5.54,0,0,0,4.72-1.94,7.59,7.59,0,0,0,1.43-4.91V61.82h-.11a7.52,7.52,0,0,1-3.53,3.27,11.49,11.49,0,0,1-4.84,1,12.36,12.36,0,0,1-5.4-1.1,10.24,10.24,0,0,1-3.72-3A12.84,12.84,0,0,1,405,57.53a21.71,21.71,0,0,1-.67-5.43,17.49,17.49,0,0,1,.78-5.21,13.62,13.62,0,0,1,2.3-4.43,10.93,10.93,0,0,1,8.91-4.18,10.83,10.83,0,0,1,4.83,1,8.32,8.32,0,0,1,3.48,3.46h.11V39H432Zm-13.82-4.8a6.12,6.12,0,0,0,2.86-.65A6,6,0,0,0,423.1,58a7.66,7.66,0,0,0,1.22-2.46,10.19,10.19,0,0,0,.4-2.89,16.16,16.16,0,0,0-.32-3.26,8.3,8.3,0,0,0-1.08-2.73,5.66,5.66,0,0,0-2-1.89,6.28,6.28,0,0,0-3.13-.7,5.63,5.63,0,0,0-2.78.64,6,6,0,0,0-2,1.76A7.33,7.33,0,0,0,412.33,49a12.69,12.69,0,0,0-.35,3,15.11,15.11,0,0,0,.3,3,8.15,8.15,0,0,0,1,2.68,6.13,6.13,0,0,0,1.92,1.94A5.46,5.46,0,0,0,418.19,60.37Z"/><path d="M434.61,53a17.18,17.18,0,0,1,1-6.07,13.19,13.19,0,0,1,2.92-4.65,13,13,0,0,1,4.53-3,16,16,0,0,1,5.94-1,16.19,16.19,0,0,1,6,1A12.73,12.73,0,0,1,462.47,47a18.34,18.34,0,0,1,0,12.12,13.1,13.1,0,0,1-2.92,4.62A12.76,12.76,0,0,1,455,66.63a16.62,16.62,0,0,1-6,1,16.45,16.45,0,0,1-5.94-1,12.81,12.81,0,0,1-4.53-2.94,13.25,13.25,0,0,1-2.92-4.62A17,17,0,0,1,434.61,53Zm7.66,0a16,16,0,0,0,.33,3.27,8.65,8.65,0,0,0,1.1,2.86,6,6,0,0,0,2.08,2,6.42,6.42,0,0,0,3.24.75,6.54,6.54,0,0,0,3.27-.75,6,6,0,0,0,2.11-2,8.65,8.65,0,0,0,1.1-2.86,16,16,0,0,0,.33-3.27,16.39,16.39,0,0,0-.33-3.29,8.37,8.37,0,0,0-1.1-2.87,6,6,0,0,0-5.38-2.8,6.22,6.22,0,0,0-3.24.78,6.38,6.38,0,0,0-2.08,2,8.37,8.37,0,0,0-1.1,2.87A16.39,16.39,0,0,0,442.27,53Z"/><path d="M465.44,47.62a9,9,0,0,1,1.35-4.48,9.17,9.17,0,0,1,3-2.86A13.14,13.14,0,0,1,474,38.74a23.1,23.1,0,0,1,4.61-.46,31,31,0,0,1,4.27.3,12.72,12.72,0,0,1,3.94,1.16,7.7,7.7,0,0,1,2.92,2.4,6.76,6.76,0,0,1,1.13,4.08V60.74a28.05,28.05,0,0,0,.22,3.62,6.45,6.45,0,0,0,.75,2.59H484a9.86,9.86,0,0,1-.35-1.32,10.42,10.42,0,0,1-.19-1.38,10,10,0,0,1-4.32,2.65,17.51,17.51,0,0,1-5.08.76,14,14,0,0,1-3.73-.49,8.49,8.49,0,0,1-3-1.51,7,7,0,0,1-2-2.6,8.66,8.66,0,0,1-.73-3.72,8.25,8.25,0,0,1,.83-3.92A7,7,0,0,1,467.57,53a9.65,9.65,0,0,1,3-1.38,30.75,30.75,0,0,1,3.43-.73c1.15-.18,2.28-.32,3.4-.43a20.43,20.43,0,0,0,3-.49,5.14,5.14,0,0,0,2.05-.94,2.08,2.08,0,0,0,.7-1.81,4,4,0,0,0-.4-2,3,3,0,0,0-1.08-1.14,4.23,4.23,0,0,0-1.57-.54,12.79,12.79,0,0,0-1.92-.13,5.79,5.79,0,0,0-3.56,1,4.35,4.35,0,0,0-1.51,3.24Zm17.71,5.67a3.54,3.54,0,0,1-1.21.68,13.31,13.31,0,0,1-1.57.4c-.56.11-1.14.2-1.75.27s-1.23.16-1.84.27a14.1,14.1,0,0,0-1.7.43,5.25,5.25,0,0,0-1.46.73,3.51,3.51,0,0,0-1,1.16,3.8,3.8,0,0,0-.38,1.79,3.59,3.59,0,0,0,.38,1.72,2.9,2.9,0,0,0,1,1.11,4.32,4.32,0,0,0,1.51.57,9.51,9.51,0,0,0,1.78.16,6.7,6.7,0,0,0,3.51-.76A5,5,0,0,0,482.29,60a5.87,5.87,0,0,0,.73-2.13,14.52,14.52,0,0,0,.13-1.73Z"/><path d="M503.78,39h5.62v5.13h-5.62V58a3.75,3.75,0,0,0,.65,2.59,3.76,3.76,0,0,0,2.59.65c.43,0,.85,0,1.24,0s.78-.1,1.14-.17V67a18.72,18.72,0,0,1-2.16.22c-.79,0-1.57,0-2.32,0a22.69,22.69,0,0,1-3.38-.24,8.1,8.1,0,0,1-2.81-.94,5.07,5.07,0,0,1-1.92-2,7.25,7.25,0,0,1-.7-3.4V44.16h-4.64V39h4.64V30.66h7.67Z"/><circle class="cls-1" cx="327.06" cy="56.38" r="56.38"/><path class="cls-2" d="M299.89,70a21.65,21.65,0,0,1-3.61,1.64,22.77,22.77,0,0,1-7.54,1.26c-.5,0-1,0-1.47-.06a43.31,43.31,0,0,0,18.24,20.84A48.59,48.59,0,0,1,300.93,81,48.06,48.06,0,0,1,299.89,70Z"/><path class="cls-2" d="M323.51,45a3.41,3.41,0,0,0,4.84-.45,2.18,2.18,0,0,0,.19-.75l-5.43-2.65c-.23.19-.73.64-.76,1A2.33,2.33,0,0,0,323.51,45Zm.23-2.59L327.06,44l-.4.85-3.32-1.57Z"/><path class="cls-2" d="M339.77,87.46a14,14,0,0,1-4.86.94l-.54,0c-.27,0-.58,0-.91,0a103,103,0,0,0,10.45,7.55l-.05.09a42.37,42.37,0,0,0,5-2.55,30.3,30.3,0,0,1-7-4.17C341.13,88.65,340.42,88,339.77,87.46Z"/><path class="cls-2" d="M288.88,19a39.78,39.78,0,0,1,4.31,2.13l.5-.49Q291.26,19.75,288.88,19Z"/><path class="cls-2" d="M335.65,29a31.4,31.4,0,0,1,12.66.06A28.93,28.93,0,0,1,361.63,36l3.72,3.33L360.63,41a32.52,32.52,0,0,1-7.18,1.6l13.77,7.65-.71,2.27c-.33,1.07-.82,2.62-1.45,4.49-2.57,7.69-3.74,10.47-6.74,11.38a6.89,6.89,0,0,1-5.34-.78c-.25-.09-.51-.18-.78-.3-1.23-.5-2.25-1-3.11-1.34a20.12,20.12,0,0,0-2.74-1.1c-.25,0-.52,0-.78,0,.14,2.45.26,5.25.39,7.77a6.9,6.9,0,0,0,2.73.52c.68-.05,2-.33,2.73-.32,1.95,0,2.67.65,3.93,1.89a7.46,7.46,0,0,1-2.19,8.66,16.91,16.91,0,0,1-5.2,3,37.59,37.59,0,0,0,6.63,3,43,43,0,0,0-23.92-76,63.33,63.33,0,0,0,2,8.14A63.64,63.64,0,0,0,335.65,29Z"/><path class="cls-2" d="M289.48,55.11a39.85,39.85,0,0,1,1.47-4c2.5-5.67,6.09-8.89,11.54-13.77L304,36a55.59,55.59,0,0,0-4.1-4.54,59.6,59.6,0,0,0-4.62-4.06,42.92,42.92,0,0,0-10.59,36.4A25.21,25.21,0,0,0,287,60.75,21.63,21.63,0,0,0,289.48,55.11Z"/><path class="cls-2" d="M316.23,27.91a16.37,16.37,0,0,1,3.23-.56,18.55,18.55,0,0,1,3.57.09,18.45,18.45,0,0,1-.71-3.93,18.84,18.84,0,0,1,2.19-10.1,42.78,42.78,0,0,0-21.62,7.37,104.24,104.24,0,0,1,10.31,5.28C314.22,26.66,315.23,27.28,316.23,27.91Z"/><path class="cls-2" d="M312,67.12a13.94,13.94,0,0,1,.67-1.43l1.47-2.86,2.71,1.74q6.61,4.23,13.26,8.52c4.31,2.79,8.63,5.58,12.94,8.33,1.39.28,4.56-.91,6.21-2.39l0,0h-.61a14.06,14.06,0,0,1-7.27-2.12,11.66,11.66,0,0,1-5.2-7.12,8.52,8.52,0,0,1,1.16-6.65c1.8-2.78,4.88-4.16,9.05-4.11,1.45,0,2.8.61,5,1.6.83.37,1.81.8,3,1.29.43.18.87.32,1.29.46s.58.19.86.29a22,22,0,0,0,1.56-3.6l-.74-.18a1.51,1.51,0,0,0-.48.25l-1,.87L355,59a2.3,2.3,0,0,0-.94-.58,2.51,2.51,0,0,0-1.85.26l-1.46-2.53a5.39,5.39,0,0,1,4.15-.53,5.22,5.22,0,0,1,1.27.59,3.75,3.75,0,0,1,2-.29,3.9,3.9,0,0,1,1,.29c.12-.35.24-.7.36-1.09.26-.76.49-1.46.7-2.11l-31-17.2-.14-.09a16.79,16.79,0,0,0-5.85-2.37l-3.85,2A97.07,97.07,0,0,0,308.47,28c-3.2-1.85-6.11-3.4-8.87-4.73-.47.4-.94.8-1.4,1.22a61.35,61.35,0,0,1,9.28,8.61l.33.39a52.78,52.78,0,0,1,5.31,7.28l-3.39,3.58c-.67-1.15-1.44-2.36-2.27-3.59-.35.3-.7.62-1.07.95-5.22,4.68-8.1,7.25-10.09,11.77a32.25,32.25,0,0,0-1.25,3.44,26.88,26.88,0,0,1-3.13,7A28.34,28.34,0,0,1,289.67,67a16.78,16.78,0,0,0,4.69-.9c10-3.49,12.45-15.17,12.55-15.67l5.74,1.15a32.27,32.27,0,0,1-6.45,13.1,42.94,42.94,0,0,0,.45,15.17,43.39,43.39,0,0,0,8.45,17.91,42.72,42.72,0,0,0,21.81.56,105.89,105.89,0,0,1-13.26-10.81C317.31,81.38,309.43,73.79,312,67.12Zm8-25.67a9.22,9.22,0,0,1,2.24-4L339.74,46l.2.13a11.36,11.36,0,0,1,3.59,4.18,8.86,8.86,0,0,1,1.2,4.83l-2.93.67a8.45,8.45,0,0,0-.89-4.19,8.59,8.59,0,0,0-2.57-3L331.13,45a5.77,5.77,0,0,1-3.07,2.74c-1.11.38-3.84,1-5.83-.43C319.82,45.58,319.46,44.18,320,41.45Z"/><path d="M329.74,7.56l.58,3.88c.1.69.23,1.37.35,2.06a43,43,0,0,1,23.92,76l.89.31h0l-1.95,5.51c-1.12-.39-2.8-1-4.66-1.82a42.37,42.37,0,0,1-5,2.55l-3.07,4.86c-1.32-.84-2.61-1.71-3.88-2.59a42.72,42.72,0,0,1-21.81-.56c.24.3.48.62.71.89l-4.5,3.74a49.58,49.58,0,0,1-5.8-8.73,43.31,43.31,0,0,1-18.24-20.84,25.72,25.72,0,0,1-4.79-.74l-1.89-.48a48.89,48.89,0,1,0,49.15-64Z"/><path d="M284.66,63.81a42.92,42.92,0,0,1,10.59-36.4c-1.54-1.21-3.13-2.34-4.79-3.41a48.78,48.78,0,0,0-10.82,44.31l1.74-1.38A24.94,24.94,0,0,0,284.66,63.81Z"/><path d="M324.51,13.41a19.34,19.34,0,0,1,1.92-3l2.26-2.88c-.54,0-1.08,0-1.63,0a48.68,48.68,0,0,0-30.47,10.7q3.2,1.2,6.3,2.6A42.78,42.78,0,0,1,324.51,13.41Z"/><path d="M293.19,21.17A39.78,39.78,0,0,0,288.88,19q2.39.71,4.81,1.64c.94-.87,1.9-1.7,2.9-2.5a111,111,0,0,0-20.09-5.42l-1,4.26a61.32,61.32,0,0,1,15,7C291.33,23,292.24,22.08,293.19,21.17Z"/><path d="M306.2,64.65a32.27,32.27,0,0,0,6.45-13.1l-5.74-1.15c-.1.5-2.54,12.18-12.55,15.67a16.78,16.78,0,0,1-4.69.9,28.34,28.34,0,0,0,2.25-3.09,26.88,26.88,0,0,0,3.13-7,32.25,32.25,0,0,1,1.25-3.44c2-4.52,4.87-7.09,10.09-11.77.37-.33.72-.65,1.07-.95.83,1.23,1.6,2.44,2.27,3.59l3.39-3.58a52.78,52.78,0,0,0-5.31-7.28l-.33-.39a61.35,61.35,0,0,0-9.28-8.61,40.91,40.91,0,0,0-2.95,2.94,59.6,59.6,0,0,1,4.62,4.06A55.59,55.59,0,0,1,304,36l-1.48,1.32c-5.45,4.88-9,8.1-11.54,13.77a39.85,39.85,0,0,0-1.47,4A21.63,21.63,0,0,1,287,60.75a25.21,25.21,0,0,1-2.33,3.06,43,43,0,0,0,2.61,9c.48,0,1,.06,1.47.06a22.77,22.77,0,0,0,7.54-1.26A21.65,21.65,0,0,0,299.89,70a48.06,48.06,0,0,0,1,11.08,48.59,48.59,0,0,0,4.58,12.6,43,43,0,0,0,9.59,4.1,43.39,43.39,0,0,1-8.45-17.91A42.94,42.94,0,0,1,306.2,64.65Z"/><path d="M329.57,6.4l-.88,1.13,1.05,0Z"/><path d="M324.51,13.41a18.84,18.84,0,0,0-2.19,10.1,18.45,18.45,0,0,0,.71,3.93,18.55,18.55,0,0,0-3.57-.09,16.37,16.37,0,0,0-3.23.56c-1-.63-2-1.25-3-1.85a104.24,104.24,0,0,0-10.31-5.28c-1.13.77-2.23,1.6-3.29,2.47,2.76,1.33,5.67,2.88,8.87,4.73a97.07,97.07,0,0,1,10.9,7.36l3.85-2a16.79,16.79,0,0,1,5.85,2.37l.14.09,31,17.2c-.21.65-.44,1.35-.7,2.11-.12.39-.24.74-.36,1.09a3.9,3.9,0,0,0-1-.29,3.75,3.75,0,0,0-2,.29,5.22,5.22,0,0,0-1.27-.59,5.39,5.39,0,0,0-4.15.53l1.46,2.53a2.51,2.51,0,0,1,1.85-.26A2.3,2.3,0,0,1,355,59l.94,1,1-.87a1.51,1.51,0,0,1,.48-.25l.74.18a22,22,0,0,1-1.56,3.6c-.28-.1-.56-.2-.86-.29s-.86-.28-1.29-.46c-1.17-.49-2.15-.92-3-1.29-2.23-1-3.58-1.58-5-1.6-4.17,0-7.25,1.33-9.05,4.11a8.52,8.52,0,0,0-1.16,6.65,11.66,11.66,0,0,0,5.2,7.12A14.06,14.06,0,0,0,348.69,79h.61l0,0c-1.65,1.48-4.82,2.67-6.21,2.39-4.31-2.75-8.63-5.54-12.94-8.33s-8.85-5.7-13.26-8.52l-2.71-1.74-1.47,2.86a13.94,13.94,0,0,0-.67,1.43c-2.57,6.67,5.31,14.26,11.65,20.36a105.89,105.89,0,0,0,13.26,10.81A43.12,43.12,0,0,0,343.86,96l.05-.09a103,103,0,0,1-10.45-7.55c.33,0,.64,0,.91,0l.54,0a14,14,0,0,0,4.86-.94c.65.57,1.36,1.19,2.14,1.84a30.3,30.3,0,0,0,7,4.17,44.57,44.57,0,0,0,5.7-4,37.59,37.59,0,0,1-6.63-3,16.91,16.91,0,0,0,5.2-3,7.46,7.46,0,0,0,2.19-8.66c-1.26-1.24-2-1.86-3.93-1.89-.69,0-2.05.27-2.73.32a6.9,6.9,0,0,1-2.73-.52c-.13-2.52-.25-5.32-.39-7.77.26,0,.53,0,.78,0a20.12,20.12,0,0,1,2.74,1.1c.86.38,1.88.84,3.11,1.34.27.12.53.21.78.3a6.89,6.89,0,0,0,5.34.78c3-.91,4.17-3.69,6.74-11.38.63-1.87,1.12-3.42,1.45-4.49l.71-2.27-13.77-7.65a32.52,32.52,0,0,0,7.18-1.6l4.72-1.62L361.63,36a28.93,28.93,0,0,0-13.32-6.93A31.4,31.4,0,0,0,335.65,29a63.64,63.64,0,0,1-2.94-7.4,63.33,63.33,0,0,1-2-8.14c-1.19-.1-2.39-.17-3.61-.17C326.2,13.33,325.35,13.37,324.51,13.41Z"/><path d="M276.76,70.6l3.83,1c-.35-1.07-.67-2.15-.95-3.26Z"/><path d="M340.79,100.88,343.86,96a43.12,43.12,0,0,1-6.95,2.27C338.18,99.17,339.47,100,340.79,100.88Z"/><path d="M353.55,95.29l1.95-5.51h0l-.89-.31a44.57,44.57,0,0,1-5.7,4C350.75,94.3,352.43,94.9,353.55,95.29Z"/><path d="M311.31,102.36l4.5-3.74c-.23-.27-.47-.59-.71-.89a43,43,0,0,1-9.59-4.1A49.58,49.58,0,0,0,311.31,102.36Z"/><path d="M299.6,23.25c1.06-.87,2.16-1.7,3.29-2.47q-3.11-1.39-6.3-2.6c-1,.8-2,1.63-2.9,2.5C295.6,21.42,297.56,22.27,299.6,23.25Z"/><path d="M287.27,72.79a43,43,0,0,1-2.61-9,24.94,24.94,0,0,1-3.28,3.12l-1.74,1.38c.28,1.11.6,2.19.95,3.26l1.89.48A25.72,25.72,0,0,0,287.27,72.79Z"/><path d="M298.2,24.47a47.17,47.17,0,0,0-5-3.3c-.95.91-1.86,1.85-2.73,2.83,1.66,1.07,3.25,2.2,4.79,3.41A40.91,40.91,0,0,1,298.2,24.47Z"/><path d="M324.51,13.41c.84,0,1.69-.08,2.55-.08,1.22,0,2.42.07,3.61.17-.12-.69-.25-1.37-.35-2.06l-.58-3.88-1.05,0-2.26,2.88A19.34,19.34,0,0,0,324.51,13.41Z"/><path d="M322.23,47.34c2,1.46,4.72.81,5.83.43A5.77,5.77,0,0,0,331.13,45l7.21,3.58a8.59,8.59,0,0,1,2.57,3,8.45,8.45,0,0,1,.89,4.19l2.93-.67a8.86,8.86,0,0,0-1.2-4.83,11.36,11.36,0,0,0-3.59-4.18l-.2-.13L322.23,37.5a9.22,9.22,0,0,0-2.24,4C319.46,44.18,319.82,45.58,322.23,47.34Zm.12-5.17c0-.35.53-.8.76-1l5.43,2.65a2.18,2.18,0,0,1-.19.75,3.41,3.41,0,0,1-4.84.45A2.33,2.33,0,0,1,322.35,42.17Z"/><rect x="324.73" y="41.81" width="0.94" height="3.67" transform="translate(146.38 318.76) rotate(-64.62)"/></g></g></svg>