<?xml version="1.0" encoding="UTF-8" standalone="no"?>
<svg
   xmlns:dc="http://purl.org/dc/elements/1.1/"
   xmlns:cc="http://creativecommons.org/ns#"
   xmlns:rdf="http://www.w3.org/1999/02/22-rdf-syntax-ns#"
   xmlns:svg="http://www.w3.org/2000/svg"
   xmlns="http://www.w3.org/2000/svg"
   xmlns:xlink="http://www.w3.org/1999/xlink"
   xmlns:sodipodi="http://sodipodi.sourceforge.net/DTD/sodipodi-0.dtd"
   xmlns:inkscape="http://www.inkscape.org/namespaces/inkscape"
   inkscape:version="1.0 (4035a4f, 2020-05-01)"
   sodipodi:docname="login.svg"
   id="svg8"
   version="1.1"
   viewBox="0 0 210 297"
   height="297mm"
   width="210mm">
  <defs
     id="defs2">
    <linearGradient
       id="linearGradient1344"
       inkscape:collect="always">
      <stop
         id="stop1340"
         offset="0"
         style="stop-color:#000000;stop-opacity:1;" />
      <stop
         id="stop1342"
         offset="1"
         style="stop-color:#000000;stop-opacity:0;" />
    </linearGradient>
    <inkscape:perspective
       id="perspective1300"
       inkscape:persp3d-origin="99.779048 : 113.91701 : 1"
       inkscape:vp_z="204.77905 : 163.41701 : 1"
       inkscape:vp_y="0 : 1000 : 0"
       inkscape:vp_x="-5.220952 : 163.41701 : 1"
       sodipodi:type="inkscape:persp3d" />
    <linearGradient
       gradientTransform="translate(-1.0687223,0.53833856)"
       inkscape:collect="always"
       xlink:href="#linearGradient1344"
       id="linearGradient1346-2"
       x1="276.97964"
       y1="718.07159"
       x2="702.62628"
       y2="722.35895"
       gradientUnits="userSpaceOnUse" />
  </defs>
  <sodipodi:namedview
     inkscape:window-maximized="0"
     inkscape:window-y="23"
     inkscape:window-x="0"
     inkscape:window-height="1035"
     inkscape:window-width="1252"
     inkscape:object-nodes="false"
     inkscape:object-paths="false"
     inkscape:snap-smooth-nodes="false"
     showgrid="false"
     inkscape:document-rotation="0"
     inkscape:current-layer="layer3"
     inkscape:document-units="mm"
     inkscape:cy="383.51685"
     inkscape:cx="52.249313"
     inkscape:zoom="0.41359131"
     inkscape:pageshadow="2"
     inkscape:pageopacity="0.0"
     borderopacity="1.0"
     bordercolor="#666666"
     pagecolor="#ffffff"
     id="base" />
  <metadata
     id="metadata5">
    <rdf:RDF>
      <cc:Work
         rdf:about="">
        <dc:format>image/svg+xml</dc:format>
        <dc:type
           rdf:resource="http://purl.org/dc/dcmitype/StillImage" />
      </cc:Work>
    </rdf:RDF>
  </metadata>
  <g
     id="layer1"
     inkscape:groupmode="layer"
     inkscape:label="Layer 1">
    <path
       d="m 221.58008,330.70312 c -1.94929,10e-6 -3.51758,2.78453 -3.51758,6.24219 v 471.29688 c 0,3.45766 1.56829,6.24219 3.51758,6.24219 h 442.08594 c 1.94928,-10e-6 3.51757,-2.78453 3.51757,-6.24219 V 336.94531 c 0,-3.45766 -1.56829,-6.24219 -3.51757,-6.24219 z m 338.19336,361.79102 c 0.27415,-0.006 0.55375,0.0211 0.82812,0.01 v -0.002 c 1.48022,-0.0567 1.48127,1.4961 0,1.4961 h -0.85937 c -0.005,0 -0.0107,0.002 -0.0156,0.002 -2.8e-4,0.002 0.001,0.004 0,0.006 -0.0711,0.0637 -0.15137,0.11529 -0.22851,0.17187 0.0571,0.0286 -0.0401,0.12746 -0.0625,0.18946 -0.10674,0.28565 -0.25935,0.52582 -0.39844,0.79492 -0.44787,0.63186 -0.29416,0.49499 -0.24805,-0.68555 0.0578,-1.48017 -0.95061,2.57949 -1.01562,1.09961 -0.0132,-0.30557 0.0201,-1.10317 -0.0527,-1.12695 -0.001,0.003 -0.003,0.005 -0.004,0.008 -0.0151,0.0151 -0.0509,0.0685 -0.043,0.0488 0.0197,-0.0489 0.0343,-0.0607 0.0469,-0.0566 0.0381,-0.0709 0.0733,-0.14431 0.11524,-0.21289 0.0253,-0.0412 0.0652,-0.0725 0.0879,-0.11524 0.20519,-0.38985 0.23965,-0.91851 0.68359,-1.14453 0.18406,-0.0899 0.0445,-0.0135 0.36914,-0.29883 0.25344,-0.13889 0.52273,-0.17778 0.79688,-0.18359 z"
       transform="scale(0.26458333)"
       style="fill:none;stroke-width:3.77953;paint-order:markers stroke fill"
       id="rect833" />
    <path
       d="m 185.47852,322.03906 c -1.94929,0 -3.51954,2.78258 -3.51954,6.24024 v 443.86132 c 0,3.45766 1.57025,6.24024 3.51954,6.24024 h 410.3125 c 1.94928,0 3.51953,-2.78258 3.51953,-6.24024 V 328.2793 c 0,-3.45766 -1.57025,-6.24024 -3.51953,-6.24024 z m 374.29492,370.45508 c 0.27415,-0.006 0.55375,0.0211 0.82812,0.01 v -0.002 c 1.48022,-0.0567 1.48127,1.4961 0,1.4961 h -0.85937 c -0.005,0 -0.0107,0.002 -0.0156,0.002 -2.8e-4,0.002 0.001,0.004 0,0.006 -0.0711,0.0637 -0.15137,0.11529 -0.22851,0.17187 0.0571,0.0286 -0.0401,0.12746 -0.0625,0.18946 -0.10674,0.28565 -0.25935,0.52582 -0.39844,0.79492 -0.44787,0.63186 -0.29416,0.49499 -0.24805,-0.68555 0.0578,-1.48017 -0.95061,2.57949 -1.01562,1.09961 -0.0132,-0.30557 0.0201,-1.10317 -0.0527,-1.12695 -0.001,0.003 -0.003,0.005 -0.004,0.008 -0.0151,0.0151 -0.0509,0.0685 -0.043,0.0488 0.0197,-0.0489 0.0343,-0.0607 0.0469,-0.0566 0.0381,-0.0709 0.0733,-0.14431 0.11524,-0.21289 0.0253,-0.0412 0.0652,-0.0725 0.0879,-0.11524 0.20519,-0.38985 0.23965,-0.91851 0.68359,-1.14453 0.18406,-0.0899 0.0445,-0.0135 0.36914,-0.29883 0.25344,-0.13889 0.52273,-0.17778 0.79688,-0.18359 z"
       transform="scale(0.26458333)"
       style="fill:none;stroke-width:3.77953;stroke-miterlimit:4;stroke-dasharray:none;paint-order:markers stroke fill"
       id="rect835" />
    <path
       d="m 167.91602,333.21875 c -38.09165,0.0396 -56.34663,32.86032 -55.13282,195.34766 1.85082,247.75835 53.17302,182.16483 151.49024,161.72265 l 291.71289,1.44532 1.44336,-345.14454 -291.71094,1.44336 c -40.81571,-1.39461 -73.38502,-14.83986 -97.80273,-14.81445 z"
       transform="scale(0.26458333)"
       style="fill:none;stroke:#000000;stroke-width:7.55906;stroke-linecap:butt;stroke-linejoin:round;stroke-miterlimit:4;stroke-dasharray:none;stroke-opacity:1"
       id="path837" />
    <ellipse
       ry="7.0686688"
       rx="4.7761288"
       cy="85.015083"
       cx="65.528481"
       id="path1250"
       style="fill:none;stroke-width:2;stroke-linejoin:round;stroke-miterlimit:4;stroke-dasharray:47.9999, 2;stroke-dashoffset:0;paint-order:fill markers stroke" />
    <path
       d="m 90.937494,98.579292 a 16.620928,11.080619 0 0 1 -11.483498,10.538018 16.620928,11.080619 0 0 1 -18.58246,-4.02354 16.620928,11.080619 0 0 1 -0.004,-13.025323 16.620928,11.080619 0 0 1 18.580014,-4.028558 l -5.131027,10.539403 z"
       sodipodi:arc-type="slice"
       sodipodi:end="5.0262242"
       sodipodi:start="0"
       sodipodi:ry="11.080619"
       sodipodi:rx="16.620928"
       sodipodi:cy="98.579292"
       sodipodi:cx="74.316566"
       sodipodi:type="arc"
       id="path1252"
       style="fill:none;stroke-width:2;stroke-linejoin:round;stroke-miterlimit:4;stroke-dasharray:47.9999, 2;stroke-dashoffset:0;paint-order:fill markers stroke" />
    <path
       id="path1258"
       d="M 68.920979,92.836287 68.21277,184.86086"
       style="fill:none;stroke:#000000;stroke-width:2;stroke-linecap:butt;stroke-linejoin:miter;stroke-opacity:1;stroke-miterlimit:4;stroke-dasharray:none" />
  </g>
  <g
     inkscape:label="arrow"
     id="layer3"
     inkscape:groupmode="layer">
    <path
       d="m 75.370861,10.536099 c 3.140506,10.000678 6.519161,19.924787 9.980361,29.81905 3.050053,7.946702 6.0492,15.977251 10.035513,23.516505 0.276882,0.440203 0.527027,0.898403 0.830641,1.320612 0.75479,1.04961 2.043668,2.404907 2.845689,3.301937 0.927066,1.036889 1.845205,2.081763 2.775615,3.115651 6.76106,7.512997 1.98406,2.052614 9.02072,10.236517 1.51721,1.830872 3.03442,3.661746 4.55162,5.492621 0,0 3.14472,-1.887424 3.14472,-1.887424 v 0 c -1.5223,-1.828057 -3.04461,-3.65611 -4.56692,-5.484167 -1.50458,-1.862317 -3.04151,-3.698965 -4.51375,-5.586949 -3.33342,-4.274725 -6.39981,-8.752028 -9.699992,-13.051539 -4.733851,-7.031278 -8.163074,-14.869758 -11.228454,-22.741157 -0.806011,-2.25552 -1.660125,-4.494421 -2.41803,-6.766557 -2.595118,-7.779945 -4.700315,-15.764165 -6.005726,-23.8644927 0,0 -4.752007,2.5793927 -4.752007,2.5793927 z"
       id="path1278"
       style="opacity:0.95;fill:none;stroke-width:2;stroke-linejoin:round;stroke-miterlimit:4;stroke-dasharray:none;stroke-dashoffset:0;paint-order:fill markers stroke" />
    <path
       d="m 124.39292,54.503798 c -0.43276,1.567162 -0.80647,3.151839 -1.29826,4.701487 -4.09706,12.909899 -9.30926,25.445675 -14.26968,38.036725 0,0 0.93761,-0.432679 0.93761,-0.432679 v 0 c 2.23578,-5.257744 4.44349,-10.527519 6.70735,-15.773236 10.18726,-23.6055 1.91815,-4.136262 10.41625,-23.60383 0.74374,-1.703777 1.44245,-3.426862 2.16368,-5.140293 0,0 -4.65695,2.211826 -4.65695,2.211826 z"
       id="path1280"
       style="opacity:0.95;fill:none;stroke-width:2;stroke-linejoin:round;stroke-miterlimit:4;stroke-dasharray:none;stroke-dashoffset:0;paint-order:fill markers stroke" />
    <path
       d="m 64.722305,259.77387 c 0.780114,-6.2309 3.458269,-11.22562 6.728325,-16.62528 2.381007,-3.93163 4.966468,-7.73979 7.628324,-11.48697 7.177609,-10.10417 11.70454,-15.29821 19.582437,-24.92956 12.781459,-14.87931 6.530799,-7.74239 18.725999,-21.4335 0,0 -1.91432,0.80798 -1.91432,0.80798 v 0 c -11.55985,13.47436 -5.57384,6.4423 -17.944368,21.10781 -8.592347,10.44743 -11.998286,14.33265 -20.061195,25.1492 -4.366829,5.85818 -10.750698,14.65261 -14.400416,21.36014 -1.379845,2.53591 -2.328027,5.74042 -3.232396,8.54055 0,0 4.88761,-2.49037 4.88761,-2.49037 z"
       id="path1282"
       style="opacity:0.95;fill:none;stroke-width:2;stroke-linejoin:round;stroke-miterlimit:4;stroke-dasharray:none;stroke-dashoffset:0;paint-order:fill markers stroke" />
    <path
       d="m 95.997703,211.89269 c 1.047761,3.31805 2.92191,6.34495 4.651687,9.33732 2.61744,4.52797 2.74734,4.66329 5.56045,9.22386 1.0264,1.5817 2.03239,3.17684 3.0792,4.7451 0.80956,1.21283 5.02856,7.30576 5.98199,8.67176 0.62749,0.89902 3.64612,5.2038 4.47047,6.28622 0.63843,0.83829 1.3253,1.63857 1.98795,2.45785 2.61481,3.17436 5.85331,5.71408 8.98254,8.34566 2.66686,2.24273 2.69616,2.29957 5.29864,4.60892 3.73234,3.17555 7.05734,6.78698 10.68133,10.07774 1.55833,1.44608 3.3327,2.61459 5.07504,3.81926 2.41073,1.54212 1.44831,1.72675 5.61027,-2.33706 0.20342,-0.19863 -0.47492,-0.31298 -0.70596,-0.47869 -0.31736,-0.22759 -0.62589,-0.46725 -0.93884,-0.70091 -2.10875,-1.62329 -3.78994,-3.66283 -5.25842,-5.8615 -1.6485,-2.83294 -3.48256,-5.53471 -5.42562,-8.17132 -3.14284,-4.10997 -6.72135,-7.86424 -10.41029,-11.48314 -3.0113,-2.79891 -6.20481,-5.39506 -9.39147,-7.99018 -2.12482,-1.67957 -4.19089,-3.43182 -6.18905,-5.26005 -1.64034,-1.45741 -3.1343,-3.06594 -4.58679,-4.7074 -2.41763,-2.61997 -4.53062,-5.49005 -6.58035,-8.39976 -1.89433,-2.70438 -3.62789,-5.51235 -5.33559,-8.33633 -1.00575,-1.67671 -2.08984,-3.30638 -3.088576,-4.98686 -0.591471,-0.99355 -1.190998,-1.98213 -1.778309,-2.97829 -1.01391,-1.32235 -1.916848,-2.80091 -3.287253,-3.79719 -0.309226,-0.22482 -0.653102,-0.39762 -0.979654,-0.59643 -0.371223,-0.13974 -0.724164,-0.34426 -1.113671,-0.41923 -2.912001,-0.56044 -5.486521,2.13151 -7.595258,3.61704 -0.848016,0.5974 -1.461395,1.47576 -2.129113,2.2696 -2.227837,2.64863 -3.091696,4.13203 -5.061426,7.07829 -4.530955,7.26018 -8.336449,14.95164 -11.447552,22.92156 -0.514001,1.31675 -0.97485,2.65363 -1.462276,3.98044 -0.679318,2.15165 -1.484331,4.27619 -1.725075,6.54172 -0.09155,0.86151 -0.315489,1.80035 0.02027,2.59899 0.401566,0.95515 1.200092,1.7459 2.053465,2.33353 3.039023,2.09269 5.9029,2.14387 9.468956,2.78949 2.331871,-0.0161 4.673262,0.16292 6.99561,-0.0482 13.495493,-1.22695 26.167252,-7.38721 37.257792,-14.8624 2.82653,-1.90512 5.36788,-4.20247 8.05181,-6.30371 2.35148,-2.27853 4.8461,-4.41807 7.05445,-6.83558 8.60089,-9.41555 14.75282,-21.12449 20.53709,-32.40217 0.57863,-1.17425 1.16479,-2.34483 1.73589,-3.52276 0.40559,-0.83655 0.80356,-1.67683 1.1941,-2.52052 0.23243,-0.5021 0.57559,-0.97223 0.67467,-1.51658 0.0395,-0.21671 -0.0904,-0.6853 -0.29061,-0.59346 -5.41297,2.48301 -5.25625,2.71529 -8.64434,5.95089 -12.54947,11.71626 -26.03119,22.37973 -39.3625,33.18099 -5.20222,4.39612 -10.567184,8.63104 -15.50341,13.33431 -1.327338,1.2647 -3.507859,3.44341 -4.583879,5.11339 -0.337355,0.52357 -0.515419,1.13405 -0.773129,1.70108 0.0087,0.42343 -0.09804,0.86535 0.02603,1.27028 0.637463,2.08062 4.38571,1.96476 6.034797,1.95018 1.686885,-0.12597 3.377903,-0.31532 5.008734,-0.77732 0,0 4.288477,-3.331 4.288477,-3.331 v 0 c -1.63577,0.62034 -3.36518,0.87288 -5.101131,1.04592 -1.218661,0.0419 -4.965999,0.20178 -5.529072,-1.30871 -0.115586,-0.31007 -0.04679,-0.66017 -0.07018,-0.99025 0.196215,-0.49512 0.319566,-1.02575 0.588645,-1.48536 0.935297,-1.59755 2.761538,-3.5484 3.978611,-4.77288 4.578127,-4.60596 9.636517,-8.71255 14.563677,-12.928 13.60954,-11.18234 27.38485,-22.17208 40.67666,-33.73379 1.01187,-0.86425 3.29496,-1.28756 3.03561,-2.59277 -0.22982,-1.15663 -2.19195,0.87077 -3.29481,1.28829 -0.0908,0.0344 0.26839,-0.23446 0.25656,-0.13806 -0.0579,0.47165 -0.24837,0.91833 -0.40734,1.36615 -0.62611,1.76382 -1.64726,4.10598 -2.33868,5.75158 -1.75942,3.86708 -2.8416,6.37779 -4.897,10.25196 -4.0606,7.65373 -8.68143,15.10531 -14.539,21.53694 -2.17632,2.3896 -4.63424,4.50666 -6.95136,6.75999 -2.6867,2.09005 -5.27828,4.30847 -8.06008,6.27016 -4.64734,3.27723 -9.90515,5.85735 -15.20265,7.85919 -5.297965,2.00202 -10.723776,3.36088 -16.378496,3.78016 -2.211882,0.16399 -4.435374,-0.0689 -6.653061,-0.1034 -3.541805,-0.76011 -5.816275,-0.78681 -8.735441,-2.91442 -0.742649,-0.54127 -1.440029,-1.24548 -1.793558,-2.09373 -0.313991,-0.75337 -0.159639,-1.63266 -0.09874,-2.44658 0.166553,-2.22614 0.86772,-4.21146 1.477108,-6.34409 0.443667,-1.29967 0.855102,-2.61079 1.331,-3.89901 2.959237,-8.01039 6.859534,-15.66253 11.486044,-22.83527 2.076809,-2.94384 3.063845,-4.57011 5.474377,-7.16367 0.754748,-0.81205 2.627296,-1.19021 2.421763,-2.27963 -0.17925,-0.9501 -1.862315,0.64814 -2.615094,1.2549 -0.305721,0.24641 0.784,-0.13681 1.174279,-0.0936 0.36499,0.0404 0.698645,0.22652 1.047967,0.33977 0.308538,0.17456 0.633455,0.32291 0.925613,0.52368 1.346107,0.92507 2.201947,2.36872 3.076075,3.70699 0.569584,1.01379 1.193104,1.99376 1.823066,2.97084 1.05115,1.65168 2.191256,3.24755 3.220178,4.9147 1.797174,2.78063 3.63715,5.53063 5.48609,8.27696 2.01664,2.9476 4.19161,5.78228 6.50158,8.50693 1.4077,1.7033 2.82528,3.41159 4.53449,4.82671 2.08676,1.76742 4.17985,3.53297 6.36596,5.17676 3.22314,2.56134 6.48547,5.08185 9.54588,7.83884 3.69732,3.56261 7.32485,7.23008 10.22562,11.49173 1.87154,2.67115 3.66323,5.3938 5.28665,8.22444 0.25062,0.3978 0.48534,0.80611 0.75187,1.19343 1.25943,1.83031 2.90609,3.35471 4.53846,4.84254 0.2881,0.25207 0.57867,0.50133 0.86431,0.7562 0.19505,0.17405 0.33527,0.62834 0.57766,0.53041 6.1901,-2.50031 6.15197,-2.04261 3.6005,-3.48676 -1.81026,-1.11252 -3.58045,-2.28875 -5.21814,-3.64767 -3.84901,-3.09806 -7.35721,-6.59678 -11.12509,-9.79096 -1.69286,-1.50209 -3.55343,-3.16043 -5.26104,-4.64585 -3.06082,-2.66252 -6.20569,-5.25056 -8.90292,-8.29744 -5.87335,-6.85197 -11.30235,-14.08797 -16.04906,-21.77088 -2.15821,-3.65805 -3.3883,-5.60023 -5.28287,-9.35112 -1.39755,-2.76687 -2.83385,-5.72949 -3.47224,-8.79579 -0.0591,-0.28366 -0.0556,-0.57682 -0.0835,-0.86522 0,0 -4.909068,2.50129 -4.909068,2.50129 z"
       id="path1284"
       style="opacity:0.95;fill:none;stroke-width:2;stroke-linejoin:round;stroke-miterlimit:4;stroke-dasharray:none;stroke-dashoffset:0;paint-order:fill markers stroke" />
    <path
       d="m 259.29492,660.3418 c -2.53789,0.6481 -2.44001,19.18675 -3.50195,8.18554 -0.47815,-4.95341 -11.03053,27.39382 -33.66406,34.14258 -9.36481,2.79237 -18.89391,6.71259 -26.26563,9.57422 -4.02927,1.05841 -6.58072,1.72309 -16.11719,4.24609 l 169.7793,-1.91211 156.77734,2.57813 49.76563,-22.46875 c -9.87065,0.90548 -41.26256,0.77489 -144.09766,0.22852 -141.73811,-0.75304 -142.34511,-3.73001 -149.11914,-27.50196 -1.57196,-5.51646 -2.71067,-7.2883 -3.55664,-7.07226 z m 296.77344,34.3457 c 0.64816,-0.0595 1.1399,-0.12667 1.61719,-0.19531 0.0131,-0.0242 0.0257,-0.0461 0.0351,-0.043 0.0381,-0.0709 0.0733,-0.14431 0.11524,-0.21289 0.0253,-0.0412 0.0652,-0.0725 0.0879,-0.11524 0.0539,-0.10234 0.092,-0.21854 0.13281,-0.33203 z m 1.65234,-0.23828 c -0.001,0.003 -0.003,0.005 -0.004,0.008 -0.0109,0.0109 -0.0231,0.0263 -0.0312,0.0352 0.0133,-0.002 0.0318,-0.004 0.0449,-0.006 -0.004,-0.008 -0.005,-0.0356 -0.01,-0.0371 z m -377.97461,22.04101 21.77735,-6.61718 -31.05469,6.72265 9.27148,-0.10351 z m 362.66993,-28.09179 c -3.82412,0.0391 -6.39222,0.20009 -6.73047,0.53515 -0.77396,0.7666 16.77176,-0.35878 23.89453,0.71094 -0.21842,-0.25925 -0.34,-0.59214 -0.51172,-0.88672 0.0143,-0.0245 0.0221,-0.0562 0.0352,-0.082 -4.42504,-0.13728 -8.76492,-0.24821 -12.48047,-0.27734 -1.51761,-0.0119 -2.93233,-0.013 -4.20703,0 z m 18.26171,0.33203 c 0.0117,0.0198 0.0234,0.0399 0.0352,0.0586 0.0333,-0.0173 0.0565,-0.0364 0.084,-0.0547 -0.04,-10e-4 -0.0792,-0.003 -0.11915,-0.004 z m 25.66016,1.33398 c -0.0369,0.0778 -0.0955,0.14723 -0.16797,0.21289 0.82519,-0.0449 0.84895,-0.11872 0.16797,-0.21289 z m -24.125,1.47852 c -10e-4,0.004 -6.2e-4,0.009 -0.002,0.0137 l 0.01,-0.01 c -0.003,-10e-4 -0.005,-0.003 -0.008,-0.004 z m -3.49023,2.61133 c -0.0252,0.0193 -0.0642,0.10385 -0.0996,0.17382 0.0531,-0.0109 0.1019,-0.0221 0.15234,-0.0332 -0.01,-0.0859 -0.0213,-0.16467 -0.0527,-0.14062 z m -365.20704,18.98242 c -3.65628,1.38393 -6.68901,2.43237 -8.58398,2.72656 -1.90791,0.29616 3.0424,-1.15079 8.58398,-2.72656 z"
       transform="scale(0.26458333)"
       style="opacity:0.95;fill:url(#linearGradient1346-2);fill-opacity:1;stroke-width:10.6543;stroke-linejoin:round;stroke-miterlimit:4;stroke-dasharray:none;stroke-dashoffset:0;paint-order:fill markers stroke"
       id="path1324-4" />
    <path
       transform="scale(0.26458333)"
       id="path1477"
       d=""
       style="opacity:0.95;fill:#000000;stroke-width:3.45852;stroke-linejoin:round;stroke-miterlimit:4;stroke-dasharray:none;stroke-dashoffset:0;paint-order:stroke fill markers" />
    <g
       transform="rotate(1.3808871,2466.6577,1733.8968)"
       id="g1531">
      <path
         style="opacity:0.95;fill:#000000;stroke-width:1.92002;stroke-linejoin:round;stroke-miterlimit:4;stroke-dasharray:none;stroke-dashoffset:0;paint-order:stroke fill markers"
         d="m 52.5913,229.26263 c 0.217102,-0.17019 4.932032,-4.0585 10.477627,-8.64069 l 10.519113,-9.14132 -0.436215,-1.31981 v -2.12987 l -1.158618,-0.11995 c 0,0 -30.209326,1.78948 -30.259094,1.75727 -0.02658,-0.0172 1.23073,-0.84782 2.794034,-1.84581 l 2.842369,-1.81452 18.669222,-0.67396 c 10.268074,-0.37068 19.177333,-0.63731 19.798355,-0.59251 l 1.12913,0.0815 -14.45392,11.78418 -14.630943,11.60717 -2.323355,0.40556 c -3.20254,0.55903 -3.575005,1.11887 -2.967705,0.64281 z"
         id="path1525"
         sodipodi:nodetypes="ssccccsscsccccsss" />
      <path
         style="opacity:0.95;fill:#000000;stroke-width:7.25678;stroke-linejoin:round;stroke-miterlimit:4;stroke-dasharray:none;stroke-dashoffset:0;paint-order:stroke fill markers"
         d="m 36.928054,886.43334 v -5.60056 L 157.25272,833.1527 c 66.17857,-26.22404 120.63184,-47.68008 121.00727,-47.68008 0.37542,0 0.55397,2.67521 0.39678,5.94491 l -0.28581,5.9449 -120.48145,47.33157 c -66.264798,26.03236 -120.589451,47.33344 -120.721453,47.33574 -0.132001,0.002 -0.240003,-2.51609 -0.240003,-5.5964 z"
         id="path1527"
         transform="scale(0.26458333)" />
    </g>
  </g>
</svg>
